<?xml version="1.0" encoding="utf-8"?>
<!DOCTYPE svg PUBLIC "-//W3C//DTD SVG 1.1//EN" "http://www.w3.org/Graphics/SVG/1.1/DTD/svg11.dtd">
<svg xmlns="http://www.w3.org/2000/svg" xmlns:xlink="http://www.w3.org/1999/xlink" version="1.1" baseProfile="full" width="86.5" height="86.5" viewBox="0 0 86.50 86.50" enable-background="new 0 0 86.50 86.50" xml:space="preserve">
	<ellipse fill="none" stroke-width="6" stroke-linejoin="round" stroke="#FFFFFF" stroke-opacity="1" cx="43.25" cy="43.25" rx="40.25" ry="40.25"/>
	<g>
		<path fill="#FFFFFF" fill-opacity="1" stroke-linejoin="round" d="M 22.085,48.53C 20.635,48.53 19.4,48.0125 18.38,46.9775C 17.36,45.9425 16.85,44.71 16.85,43.28C 16.85,41.84 17.36,40.595 18.38,39.545C 19.4,38.495 20.635,37.97 22.085,37.97C 23.565,37.97 24.8225,38.495 25.8575,39.545C 26.8925,40.595 27.41,41.84 27.41,43.28C 27.41,44.71 26.8925,45.9425 25.8575,46.9775C 24.8225,48.0125 23.565,48.53 22.085,48.53 Z "/>
		<path fill="#FFFFFF" fill-opacity="1" stroke-linejoin="round" d="M 43.205,48.53C 41.755,48.53 40.52,48.0125 39.5,46.9775C 38.48,45.9425 37.97,44.71 37.97,43.28C 37.97,41.84 38.48,40.595 39.5,39.545C 40.52,38.495 41.755,37.97 43.205,37.97C 44.685,37.97 45.9425,38.495 46.9775,39.545C 48.0125,40.595 48.53,41.84 48.53,43.28C 48.53,44.71 48.0125,45.9425 46.9775,46.9775C 45.9425,48.0125 44.685,48.53 43.205,48.53 Z "/>
		<path fill="#FFFFFF" fill-opacity="1" stroke-linejoin="round" d="M 64.325,48.53C 62.875,48.53 61.64,48.0125 60.62,46.9775C 59.6,45.9425 59.09,44.71 59.09,43.28C 59.09,41.84 59.6,40.595 60.62,39.545C 61.64,38.495 62.875,37.97 64.325,37.97C 65.805,37.97 67.0625,38.495 68.0975,39.545C 69.1325,40.595 69.65,41.84 69.65,43.28C 69.65,44.71 69.1325,45.9425 68.0975,46.9775C 67.0625,48.0125 65.805,48.53 64.325,48.53 Z "/>
	</g>
</svg>
