<?xml version="1.0" encoding="utf-8"?>
<!DOCTYPE svg PUBLIC "-//W3C//DTD SVG 1.1//EN" "http://www.w3.org/Graphics/SVG/1.1/DTD/svg11.dtd">
<svg xmlns="http://www.w3.org/2000/svg" xmlns:xlink="http://www.w3.org/1999/xlink" version="1.1" baseProfile="full" width="514.006" height="107.639" viewBox="0 0 514.01 107.64" enable-background="new 0 0 514.01 107.64" xml:space="preserve">
	<g>
		<ellipse fill="#F44336" fill-opacity="1" stroke-width="0.2" stroke-linejoin="round" cx="53.8195" cy="53.8195" rx="53.8195" ry="53.8195"/>
		<ellipse fill="#B71C1C" fill-opacity="1" stroke-width="0.2" stroke-linejoin="round" cx="53.8197" cy="53.8195" rx="42.8851" ry="42.8851"/>
		<path fill="#120303" fill-opacity="1" stroke-width="0.2" stroke-linejoin="round" d="M 53.8194,48.1393C 56.9565,48.1393 59.4996,50.6823 59.4996,53.8194C 59.4996,56.9564 56.9564,59.4996 53.8194,59.4996C 50.6824,59.4996 48.1393,56.9564 48.1393,53.8194C 48.1393,50.6823 50.6823,48.1393 53.8194,48.1393 Z "/>
	</g>
	<g>
		<path fill="#FFFFFF" fill-opacity="1" stroke-width="0.2" stroke-linejoin="round" d="M 307.99,72.1057L 312.363,61.0489L 324.987,61.0489L 318.995,44.2766L 326.489,25.3273L 347.951,82.3118L 332.124,82.3118L 328.456,72.1057L 307.99,72.1057 Z "/>
		<path fill="#F44336" fill-opacity="1" stroke-width="0.2" stroke-linejoin="round" d="M 294.487,82.3119L 317.463,25.3273L 302.231,25.3274L 286.514,62.1521L 275.337,25.3275L 263.629,25.3275L 251.629,62.1521L 243.166,45.3718L 235.508,68.9665L 243.284,82.3119L 258.274,82.3119L 269.118,49.2881L 279.457,82.3119L 294.487,82.3119 Z "/>
		<path fill="#FFFFFF" fill-opacity="1" stroke-width="0.2" stroke-linejoin="round" d="M 211.058,62.7499L 220.44,62.7499C 223.282,62.7499 225.813,62.4327 228.032,61.7983L 230.459,54.3231L 237.24,33.431C 236.723,32.6121 236.133,31.8377 235.47,31.1081C 231.988,27.2542 226.894,25.3272 220.187,25.3272L 196.599,25.3272L 196.599,82.3117L 211.058,82.3117L 211.058,62.7499 Z M 223.477,38.4371C 224.836,39.8059 225.516,41.6376 225.516,43.9322C 225.516,46.2445 224.918,48.0784 223.722,49.4339C 222.411,50.94 219.997,51.6931 216.48,51.6931L 211.058,51.6931L 211.058,36.3839L 216.52,36.3839C 219.798,36.3839 222.117,37.0682 223.477,38.4371 Z "/>
	</g>
	<g>
		<path fill="#FFFFFF" fill-opacity="1" stroke-width="0.2" stroke-linejoin="round" d="M 163.502,32.7402L 169.127,38.3649L 132.593,74.8988L 126.968,69.2742L 163.502,32.7402 Z "/>
		<path fill="#FFFFFF" fill-opacity="1" stroke-width="0.2" stroke-linejoin="round" d="M 126.968,38.3649L 132.593,32.7403L 169.126,69.2742L 163.502,74.8988L 126.968,38.3649 Z "/>
	</g>
	<g>
		<path fill="#FFFFFF" fill-opacity="1" stroke-width="0.2" stroke-linejoin="round" d="M 399.957,32.7402L 405.582,38.3649L 369.048,74.8988L 363.424,69.2742L 399.957,32.7402 Z "/>
		<path fill="#FFFFFF" fill-opacity="1" stroke-width="0.2" stroke-linejoin="round" d="M 363.424,38.3649L 369.048,32.7403L 405.582,69.2742L 399.957,74.8988L 363.424,38.3649 Z "/>
	</g>
	<path fill="#FFFFFF" fill-opacity="1" stroke-width="2.66667" stroke-linejoin="round" d="M 456.119,82.9319L 431.318,82.9319C 428.182,82.9319 425.639,80.3888 425.639,77.252L 425.639,30.3871C 425.639,27.25 428.182,24.7072 431.318,24.7072L 508.326,24.7072C 511.463,24.7072 514.006,27.25 514.006,30.3871L 514.006,77.252C 514.006,80.3888 511.463,82.9319 508.326,82.9319L 483.354,82.9319C 480.136,67.4385 474.208,56.9074 469.447,56.9074C 464.685,56.9074 459.115,67.4385 456.119,82.9319 Z M 450.132,42.5184C 444.486,42.5184 439.909,47.0957 439.909,52.7422C 439.909,58.3886 444.486,62.9659 450.132,62.9659C 455.779,62.9659 460.356,58.3886 460.356,52.7422C 460.356,47.0957 455.779,42.5184 450.132,42.5184 Z M 489.512,42.5184C 483.866,42.5184 479.289,47.0957 479.289,52.7421C 479.289,58.3885 483.866,62.9658 489.512,62.9658C 495.159,62.9658 499.736,58.3885 499.736,52.7421C 499.736,47.0957 495.159,42.5184 489.512,42.5184 Z "/>
	<g>
		<path fill="#F44336" fill-opacity="1" stroke-width="0.2" stroke-linejoin="round" d="M 489.639,68.1537L 491.964,68.1538L 495.861,79.0448L 493.536,79.0448L 489.639,68.1537 Z "/>
		<path fill="#F44336" fill-opacity="1" stroke-width="0.2" stroke-linejoin="round" d="M 497.685,67.9365L 500.091,67.9364L 496.762,77.5348L 495.44,74.0219L 497.685,67.9365 Z "/>
		<path fill="#F44336" fill-opacity="1" stroke-width="0.2" stroke-linejoin="round" d="M 502.819,73.7379L 505.462,73.7379L 508.772,79.0244L 506.129,79.0244L 502.819,73.7379 Z "/>
		<path fill="#F44336" fill-opacity="1" stroke-width="0.2" stroke-linejoin="round" d="M 506.303,73.3251L 507.379,74.9724C 507.379,74.9725 508.889,74.1515 508.889,72.6386C 508.889,70.2604 508.14,67.9939 504.587,67.9939C 501.035,67.9939 500.561,69.1593 500.56,70.8082C 500.56,72.457 500.56,79.0228 500.56,79.0228L 502.69,79.0228L 502.69,70.5331C 502.69,70.5331 502.452,69.9387 504.908,69.9387C 507.364,69.9388 506.99,72.9133 506.303,73.3251 Z "/>
	</g>
</svg>
