<?xml version="1.0" encoding="utf-8"?>
<!DOCTYPE svg PUBLIC "-//W3C//DTD SVG 1.1//EN" "http://www.w3.org/Graphics/SVG/1.1/DTD/svg11.dtd">
<svg xmlns="http://www.w3.org/2000/svg" xmlns:xlink="http://www.w3.org/1999/xlink" version="1.1" baseProfile="full" width="96" height="36.1443" viewBox="0 0 96.00 36.14" enable-background="new 0 0 96.00 36.14" xml:space="preserve">
	<g>
		<path fill="#FFFFFF" fill-opacity="1" stroke-width="0.2" stroke-linejoin="round" d="M 70.6535,29.6707L 73.4268,22.6576L 81.4344,22.6576L 77.6339,12.0192L 82.3869,4.57764e-005L 96,36.1443L 85.9608,36.1443L 83.6344,29.6707L 70.6535,29.6707 Z "/>
		<path fill="#F44336" fill-opacity="1" stroke-width="0.2" stroke-linejoin="round" d="M 62.0888,36.1443L 76.6619,4.57764e-005L 67.0003,7.62939e-005L 57.0313,23.3573L 49.9424,0.000137329L 42.5162,0.000137329L 34.9048,23.3573L 29.5369,12.7139L 24.6792,27.6796L 29.6112,36.1443L 39.1193,36.1443L 45.9975,15.1979L 52.5554,36.1443L 62.0888,36.1443 Z "/>
		<path fill="#FFFFFF" fill-opacity="1" stroke-width="0.2" stroke-linejoin="round" d="M 9.17093,23.7365L 15.1219,23.7365C 16.9246,23.7365 18.5298,23.5353 19.9375,23.1329L 21.4765,18.3915L 25.7778,5.14009C 25.4501,4.62065 25.0759,4.12947 24.6553,3.6667C 22.4469,1.22218 19.2157,1.52588e-005 14.9618,1.52588e-005L 0,1.52588e-005L 0,36.1442L 9.17093,36.1442L 9.17093,23.7365 Z M 17.048,8.31532C 17.9106,9.18352 18.3419,10.3453 18.3419,11.8008C 18.3419,13.2675 17.9626,14.4306 17.2039,15.2905C 16.3723,16.2457 14.8409,16.7234 12.61,16.7234L 9.17093,16.7234L 9.17093,7.01299L 12.6353,7.01299C 14.7145,7.01299 16.1854,7.4471 17.048,8.31532 Z "/>
	</g>
</svg>
