<?xml version="1.0" encoding="utf-8"?>
<!DOCTYPE svg PUBLIC "-//W3C//DTD SVG 1.1//EN" "http://www.w3.org/Graphics/SVG/1.1/DTD/svg11.dtd">
<svg xmlns="http://www.w3.org/2000/svg" xmlns:xlink="http://www.w3.org/1999/xlink" version="1.1" baseProfile="full" width="2485.02" height="693.242" viewBox="0 0 2485.02 693.24" enable-background="new 0 0 2485.02 693.24" xml:space="preserve">
	<g>
		<path fill="#706CF5" fill-opacity="1" stroke-width="0.2" stroke-linejoin="round" d="M 402.595,0.000244141C 574.222,0.000244141 690.84,116.619 690.84,288.246L 690.84,404.996L 690.618,417.898C 684.912,582.441 569.885,693.242 402.595,693.242L 288.246,693.242C 116.619,693.242 -3.05176e-005,580.375 -3.05176e-005,408.748L -3.05176e-005,284.494C -3.05176e-005,117.991 109.758,6.79272 273.02,0.300537L 288.246,0L 402.595,0.000244141 Z "/>
		<g>
			<path fill="#FFFFFF" fill-opacity="0.992157" stroke-width="0.2" stroke-linejoin="round" d="M 355.103,558.055C 362.981,558.055 370.758,557.624 378.414,556.785L 363.912,528.127L 355.102,528.337C 283.863,528.337 222.198,487.343 192.411,427.657C 177.367,419.728 163.581,411.451 151.263,402.982C 175.93,492.393 257.849,558.055 355.103,558.055 Z "/>
			<path fill="#FFFFFF" fill-opacity="0.992157" stroke-width="0.2" stroke-linejoin="round" d="M 536.363,359.591L 566.319,359.591C 566.318,359.592 566.188,351.134 566.093,332.796C 558.972,222.467 467.23,135.186 355.102,135.186C 282.343,135.186 218.168,171.937 180.127,227.889C 134.314,234.407 103.031,250.965 96.0652,276.554C 89.0804,302.215 107.782,332.442 144.173,361.355C 153.984,369.15 165.08,376.85 177.306,384.338C 217.27,408.818 275.992,433.529 334.614,449.485L 322.324,411.348C 261.373,393.669 208.875,370.229 173.386,346.478C 173.412,312.897 182.546,281.447 198.453,254.466C 230.053,200.867 288.378,164.904 355.102,164.904C 455.462,164.904 536.819,246.261 536.819,346.621L 536.816,347.751C 536.791,351.729 536.639,355.677 536.363,359.591 Z M 164.481,255.031L 162.95,258.282C 153.595,278.597 147.366,300.649 144.882,323.821C 129.566,308.741 122.454,294.255 125.838,281.823C 129.258,269.26 142.982,260.321 164.481,255.031 Z "/>
			<path fill="#FFFFFF" fill-opacity="1" stroke-width="0.2" stroke-linejoin="round" d="M 341.311,386.986L 371.99,386.986L 423.412,530.7L 392.733,530.7L 341.311,386.986 Z "/>
			<path fill="#FFFFFF" fill-opacity="1" stroke-width="0.2" stroke-linejoin="round" d="M 447.485,384.118L 479.227,384.118L 435.305,510.774L 417.852,464.419L 447.485,384.118 Z "/>
			<path fill="#FFFFFF" fill-opacity="1" stroke-width="0.2" stroke-linejoin="round" d="M 515.232,460.653L 550.109,460.653L 593.79,530.411L 558.913,530.411L 515.232,460.653 Z "/>
			<path fill="#FFFFFF" fill-opacity="1" stroke-width="0.2" stroke-linejoin="round" d="M 561.206,455.224L 575.397,476.962C 575.396,476.962 595.323,466.129 595.323,446.166C 595.323,414.783 585.439,384.875 538.562,384.876C 491.685,384.876 485.424,400.255 485.424,422.012C 485.424,443.77 485.424,530.409 485.424,530.409L 513.529,530.409L 513.528,418.382C 513.528,418.383 510.376,410.539 542.789,410.539C 575.201,410.54 570.263,449.79 561.206,455.224 Z "/>
		</g>
	</g>
	<g>
		<path fill="#FFFFFF" fill-opacity="1" stroke-width="0.2" stroke-linejoin="round" d="M 1629.81,177.722L 1627.96,70.4473L 1661.81,70.4473L 1661.81,205.736L 1613.14,205.736L 1579.36,94.7229L 1578.61,94.7229L 1580.5,205.736L 1546.91,205.736L 1546.91,70.4473L 1597.63,70.4473L 1629.07,177.722L 1629.81,177.722 Z "/>
		<path fill="#FFFFFF" fill-opacity="1" stroke-width="0.2" stroke-linejoin="round" d="M 1014.75,83.0642L 996.044,207.139L 959.11,207.139L 984.436,70.4561L 1045.28,70.4561L 1070.46,207.139L 1033.75,207.139L 1015.52,83.0642L 1014.75,83.0642 Z "/>
		<path fill="#FFFFFF" fill-opacity="1" stroke-width="0.2" stroke-linejoin="round" d="M 1174.09,174.963L 1190.98,70.4509L 1246.7,70.4509L 1249.74,207.134L 1215.52,207.134L 1214.64,84.218L 1213.9,84.252L 1191.07,207.134L 1156.41,207.134L 1133.56,84.218L 1132.79,84.218L 1131.93,207.134L 1097.76,207.134L 1100.78,70.4509L 1156.52,70.4509L 1173.34,174.963L 1174.09,174.963 Z "/>
		<path fill="#FFFFFF" fill-opacity="1" stroke-width="0.2" stroke-linejoin="round" d="M 901.582,168.547C 902.926,171.848 902.48,176.107 901.851,178.686C 900.733,183.146 897.659,187.8 888.545,187.8C 880.011,187.8 874.794,182.911 874.794,175.469L 874.769,162.197L 838.112,162.197L 838.112,172.772C 838.112,203.247 862.111,212.42 887.772,212.42C 912.543,212.42 932.846,204.02 936.114,181.223C 937.785,169.396 936.55,161.651 935.979,158.761C 930.183,130.126 878.322,121.65 874.45,105.599C 873.795,102.802 873.946,100.021 874.29,98.4587C 875.281,94.0654 878.247,89.2773 886.789,89.2773C 894.811,89.2773 899.49,94.2166 899.49,101.65L 899.49,110.084L 933.61,110.084L 933.61,100.525C 933.61,70.739 906.865,66.0852 887.512,66.0852C 863.211,66.0852 843.379,74.1406 839.725,96.4509C 838.742,102.474 838.599,107.942 840.069,114.847C 845.983,142.776 894.542,150.874 901.582,168.547 Z "/>
		<path fill="#FFFFFF" fill-opacity="1" stroke-width="0.2" stroke-linejoin="round" d="M 1346,168.277C 1347.27,171.553 1346.89,175.753 1346.26,178.323C 1345.16,182.825 1342.08,187.328 1333.06,187.328C 1324.58,187.328 1319.46,182.531 1319.46,175.131L 1319.44,161.985L 1283.14,161.985L 1283.11,172.435C 1283.11,202.641 1306.89,211.679 1332.33,211.679C 1356.81,211.679 1376.93,203.406 1380.14,180.818C 1381.81,169.125 1380.58,161.456 1380.01,158.558C 1374.28,130.234 1322.92,121.825 1319.13,105.941C 1318.46,103.203 1318.65,100.448 1318.96,98.9189C 1319.93,94.5508 1322.85,89.8049 1331.32,89.8049C 1339.26,89.8049 1343.9,94.6941 1343.9,102.002L 1343.9,110.377L 1377.67,110.377L 1377.67,100.943C 1377.67,71.46 1351.18,66.8652 1332.06,66.8652C 1307.99,66.8652 1288.33,74.7354 1284.74,96.8779C 1283.74,102.858 1283.59,108.277 1285.05,115.097C 1290.93,142.775 1339.01,150.797 1346,168.277 Z "/>
		<path fill="#FFFFFF" fill-opacity="1" stroke-width="0.2" stroke-linejoin="round" d="M 1460.72,186.59C 1470.21,186.59 1473.16,180.139 1473.84,176.737C 1474.13,175.259 1474.18,173.276 1474.16,171.513L 1474.16,70.4285L 1508.82,70.4285L 1508.82,168.388C 1508.85,170.916 1508.59,176.065 1508.44,177.418C 1506.06,202.903 1485.86,211.143 1460.72,211.143C 1435.59,211.143 1415.4,202.903 1413.04,177.418C 1412.93,176.065 1412.65,170.916 1412.71,168.388L 1412.71,70.4285L 1447.27,70.4285L 1447.27,171.513C 1447.24,173.276 1447.31,175.259 1447.6,176.737C 1448.28,180.139 1451.23,186.59 1460.72,186.59 Z "/>
		<path fill="#FFFFFF" fill-opacity="1" stroke-width="0.2" stroke-linejoin="round" d="M 1745.89,185.196C 1755.76,185.196 1759.23,178.963 1759.86,175.318C 1760.12,173.764 1760.22,171.848 1760.17,170.11L 1760.17,150.295L 1746.18,150.295L 1746.18,130.303L 1794.55,130.303L 1794.55,166.976C 1794.53,169.539 1794.5,171.437 1794.12,175.998C 1791.84,200.87 1770.22,209.774 1746.02,209.774C 1721.8,209.774 1700.2,200.87 1697.96,175.998C 1697.56,171.437 1697.49,169.539 1697.48,166.976L 1697.49,109.471C 1697.49,107.01 1697.79,102.718 1698.07,100.525C 1701.11,74.8799 1721.8,66.7405 1746.04,66.7405C 1770.25,66.7405 1791.51,74.8127 1794.03,100.525C 1794.43,104.783 1794.29,109.471 1794.3,109.471L 1794.3,114.015L 1759.86,114.015L 1759.86,106.338C 1759.86,106.338 1759.83,103.095 1759.42,101.197C 1758.8,98.1897 1756.21,91.2429 1745.75,91.2429C 1735.84,91.2429 1732.9,97.8203 1732.14,101.197C 1731.75,102.927 1731.59,105.364 1731.59,107.598L 1731.59,170.11C 1731.57,171.848 1731.66,173.764 1731.9,175.318C 1732.56,178.963 1736,185.196 1745.89,185.196 Z "/>
		<rect x="796.53" y="306.629" fill="#FFFFFF" fill-opacity="1" stroke-width="0.2" stroke-linejoin="round" width="59.6309" height="320.078"/>
		<path fill="#FFFFFF" fill-opacity="1" stroke-width="0.2" stroke-linejoin="round" d="M 896.02,370.198L 954.786,370.198L 954.786,405.243C 963.245,394.533 973.988,385.948 987.016,379.472C 1000,372.996 1014.84,369.754 1031.51,369.754C 1063.38,369.754 1088.32,379.229 1106.26,398.178C 1124.25,417.104 1133.24,443.496 1133.24,477.356L 1133.24,626.706L 1073.19,626.706L 1073.19,484.051C 1073.19,464.622 1068.34,449.275 1058.7,437.978C 1049.07,426.704 1034.58,421.069 1015.31,421.069C 998.322,421.069 984.084,426.915 972.518,438.624C 960.993,450.35 955.223,467.184 955.223,489.192L 955.223,626.706L 896.02,626.706L 896.02,370.198 Z "/>
		<path fill="#FFFFFF" fill-opacity="1" stroke-width="0.2" stroke-linejoin="round" d="M 1147.26,370.198L 1191.12,370.198L 1191.12,331.181L 1250.74,290.399L 1250.74,370.198L 1302.91,370.198L 1302.91,423.261L 1250.74,423.261L 1250.74,519.288C 1250.74,530.402 1251.32,539.389 1252.49,546.243C 1253.67,553.115 1256.1,558.373 1259.74,562.035C 1263.37,565.689 1268.66,568.1 1275.51,569.276C 1282.4,570.435 1291.53,571.023 1302.91,571.023L 1302.91,626.706L 1294.6,626.706C 1274.72,626.706 1258.13,624.959 1244.82,621.448C 1231.51,617.928 1220.95,612.023 1213.03,603.69C 1205.15,595.358 1199.51,584.388 1196.15,570.813C 1192.8,557.214 1191.12,540.179 1191.12,519.708L 1191.12,423.261L 1147.26,423.261L 1147.26,370.198 Z "/>
		<path fill="#FFFFFF" fill-opacity="1" stroke-width="0.2" stroke-linejoin="round" d="M 1447.65,421.94C 1429.84,421.94 1414.39,425.887 1401.4,433.749C 1388.37,441.637 1379.24,452.02 1373.99,464.905L 1519.58,464.905C 1515.19,450.826 1506.7,440.142 1494.14,432.859C 1481.58,425.585 1466.05,421.94 1447.65,421.94 Z M 1449.86,627.157C 1429.69,627.157 1411.25,623.839 1394.59,617.22C 1377.95,610.593 1363.68,601.512 1351.84,589.954C 1340.02,578.413 1330.82,564.813 1324.22,549.164C 1317.65,533.54 1314.37,516.842 1314.37,499.093C 1314.37,481.066 1317.79,464.149 1324.67,448.365C 1331.54,432.591 1340.95,418.924 1352.95,407.383C 1364.93,395.824 1379.03,386.668 1395.27,379.906C 1411.5,373.145 1428.94,369.759 1447.65,369.759C 1466.67,369.759 1484.26,372.842 1500.49,379.016C 1516.73,385.173 1530.68,393.8 1542.38,404.905C 1554.05,416.001 1563.19,429.096 1569.79,444.166C 1576.35,459.243 1579.64,475.682 1579.64,493.507L 1579.64,514.464L 1370.92,514.464C 1375.02,532.591 1383.91,547.207 1397.65,558.303C 1411.39,569.416 1428.81,574.969 1449.86,574.969C 1466.52,574.969 1480.97,570.878 1493.25,562.688C 1505.52,554.507 1514.73,543.553 1520.87,529.811L 1569.54,557.875C 1558.44,578.622 1542.89,595.364 1522.86,608.081C 1502.81,620.782 1478.51,627.157 1449.86,627.157 Z "/>
		<path fill="#FFFFFF" fill-opacity="1" stroke-width="0.2" stroke-linejoin="round" d="M 1605.93,370.198L 1664.71,370.198L 1664.71,408.351C 1676.69,382.925 1698.6,370.198 1730.47,370.198C 1739.81,370.198 1748.24,371.24 1755.7,373.273C 1763.12,375.322 1769.79,377.943 1775.65,381.152L 1753.27,437.28C 1748.88,434.374 1743.99,431.954 1738.57,430.056C 1733.18,428.149 1726.22,427.209 1717.76,427.209C 1700.5,427.209 1687.43,432.098 1678.52,441.892C 1669.59,451.686 1665.14,467.688 1665.14,489.897L 1665.14,626.706L 1605.93,626.706L 1605.93,370.198 Z "/>
		<path fill="#FFFFFF" fill-opacity="1" stroke-width="0.2" stroke-linejoin="round" d="M 1794.92,370.198L 1853.68,370.198L 1853.68,405.243C 1862.14,394.533 1872.87,385.948 1885.9,379.472C 1898.89,372.996 1913.74,369.754 1930.41,369.754C 1962.27,369.754 1987.21,379.229 2005.16,398.178C 2023.14,417.104 2032.13,443.496 2032.13,477.356L 2032.13,626.706L 1972.08,626.706L 1972.08,484.051C 1972.08,464.622 1967.23,449.275 1957.59,437.978C 1947.96,426.704 1933.47,421.069 1914.2,421.069C 1897.22,421.069 1882.97,426.915 1871.41,438.624C 1859.89,450.35 1854.11,467.184 1854.11,489.192L 1854.11,626.706L 1794.92,626.706L 1794.92,370.198 Z "/>
		<path fill="#FFFFFF" fill-opacity="1" stroke-width="0.2" stroke-linejoin="round" d="M 2191.28,421.94C 2173.48,421.94 2158.02,425.887 2145.04,433.749C 2132.01,441.637 2122.87,452.02 2117.63,464.905L 2263.21,464.905C 2258.83,450.826 2250.34,440.142 2237.77,432.859C 2225.21,425.585 2209.69,421.94 2191.28,421.94 Z M 2193.49,627.157C 2173.33,627.157 2154.88,623.839 2138.22,617.22C 2121.59,610.593 2107.32,601.512 2095.48,589.954C 2083.66,578.413 2074.45,564.813 2067.86,549.164C 2061.28,533.54 2058,516.842 2058,499.093C 2058,481.066 2061.43,464.149 2068.31,448.365C 2075.17,432.591 2084.59,418.924 2096.58,407.383C 2108.56,395.824 2122.66,386.668 2138.9,379.906C 2155.13,373.145 2172.58,369.759 2191.28,369.759C 2210.3,369.759 2227.88,372.842 2244.13,379.016C 2260.37,385.173 2274.32,393.8 2286.02,404.905C 2297.69,416.001 2306.83,429.096 2313.42,444.166C 2319.99,459.243 2323.27,475.682 2323.27,493.507L 2323.27,514.464L 2114.56,514.464C 2118.66,532.591 2127.55,547.207 2141.29,558.303C 2155.03,569.416 2172.44,574.969 2193.49,574.969C 2210.15,574.969 2224.61,570.878 2236.89,562.688C 2249.16,554.507 2258.36,543.553 2264.5,529.811L 2313.18,557.875C 2302.07,578.622 2286.52,595.364 2266.5,608.081C 2246.44,620.782 2222.15,627.157 2193.49,627.157 Z "/>
		<path fill="#FFFFFF" fill-opacity="1" stroke-width="0.2" stroke-linejoin="round" d="M 2329.37,370.198L 2373.23,370.198L 2373.23,331.181L 2432.85,290.399L 2432.85,370.198L 2485.02,370.198L 2485.02,423.261L 2432.85,423.261L 2432.85,519.288C 2432.85,530.402 2433.42,539.389 2434.6,546.243C 2435.78,553.115 2438.2,558.373 2441.85,562.035C 2445.49,565.689 2450.76,568.1 2457.62,569.276C 2464.5,570.435 2473.64,571.023 2485.02,571.023L 2485.02,626.706L 2476.71,626.706C 2456.83,626.706 2440.24,624.959 2426.93,621.448C 2413.62,617.928 2403.05,612.023 2395.14,603.69C 2387.25,595.358 2381.61,584.388 2378.25,570.813C 2374.9,557.214 2373.23,540.179 2373.23,519.708L 2373.23,423.261L 2329.37,423.261L 2329.37,370.198 Z "/>
	</g>
</svg>
